<svg id="图层_1" data-name="图层 1" xmlns="http://www.w3.org/2000/svg" viewBox="0 0 28 28"><defs><style>.cls-1{fill:#00ecef;}.cls-2{fill:#005354;}</style></defs><title>图形</title><circle class="cls-1" cx="14" cy="14" r="14"/><path class="cls-2" d="M14,14.76a4.35,4.35,0,0,0,4.21-4.1A4.42,4.42,0,0,0,14,5.71a4.42,4.42,0,0,0-4.21,4.95A4.35,4.35,0,0,0,14,14.76Z"/><path class="cls-2" d="M14,16.81c-4.67,0-8.46,1.8-8.46,4A1.31,1.31,0,0,0,6.05,22c.46.44,15.1.34,15.66.14a1.31,1.31,0,0,0,.78-1.29C22.5,18.61,18.64,16.81,14,16.81Z"/></svg>